<svg
  aria-hidden="true"
  data-prefix="fab"
  data-icon="instagram"
  className="svg-inline--fa fa-instagram fa-w-14"
  xmlns="http://www.w3.org/2000/svg"
  viewBox="0 0 448 512"
  fill="currentColor"
>
  <path
    d="M224.1 202.66c-63.54 0-115.6 51.44-115.6 115.63 0 63.54 51.6 115.6 115.6 115.6 63.4 0 115.6-51.6 115.6-115.6 0-63.39-51.6-115.63-115.6-115.63zm0 193.1c-42.2 0-76.9-34.7-76.9-76.8 0-42.2 34.7-76.9 76.9-76.9 42.1 0 76.8 34.7 76.8 76.9 0 42.1-34.7 76.8-76.8 76.8zm146.1-162.4c-9.4 0-17.5-7.6-17.5-17.1 0-9.5 7.6-17.1 17.5-17.1 9.5 0 17.1 7.6 17.1 17.1 0 9.5-7.6 17.1-17.1 17.1zM224.1 0C100.2 0 0 100.2 0 224.1v63.5c0 33.9 12.7 65.8 33.7 89.9 19.7 21.8 45.1 34.8 71.7 38.7 6.6 1.2 13.3 1.8 20.1 1.8h190.3c6.8 0 13.5-.6 20.1-1.8 26.5-3.9 52-16.9 71.7-38.7 21-24.1 33.7-56.1 33.7-89.9v-63.5c0-123.9-100.2-224.1-224.1-224.1zM224.1 390.6c-91.6 0-166.8-74.9-166.8-166.8 0-91.6 74.9-166.8 166.8-166.8 91.7 0 166.8 74.9 166.8 166.8 0 91.6-74.9 166.8-166.8 166.8zm171.7-55.6c-10.8 15.6-25.8 27.8-43.7 35.1-15.5 6.8-32.3 10.2-49.6 10.2H81.1c-17.3 0-34.1-3.4-49.6-10.2-17.9-7.3-32.9-19.5-43.7-35.1-13.4-19.4-20.7-42.7-20.7-67.8v-63.5c0-25.1 7.3-48.4 20.7-67.8 10.8-15.6 25.8-27.8 43.7-35.1 15.5-6.8 32.3-10.2 49.6-10.2h190.3c17.3 0 34.1 3.4 49.6 10.2 17.9 7.3 32.9 19.5 43.7 35.1 13.4 19.4 20.7 42.7 20.7 67.8v63.5c0 25.1-7.3 48.4-20.7 67.8z"
  />
</svg>
