<svg aria-hidden="true" focusable="false" data-prefix="fab" data-icon="linkedin" class="svg-inline--fa fa-linkedin fa-w-14" role="img" xmlns="http://www.w3.org/2000/svg" viewBox="0 0 448 512">
  <path fill="currentColor" d="M100.28 448H7.4V151.6h92.88V448zM54.86 119.3c-29.2 0-52.8-23.6-52.8-52.8s23.6-52.8 52.8-52.8 52.8 23.6 52.8 52.8-23.6 52.8-52.8 52.8zm393.4 328.7h-92.8v-134.4c0-32.1-11.4-54-40-54-21.8 0-34.7 14.6-40.3 28.8-2.1 5.1-2.7 12.2-2.7 19.3v140.4h-92.8v-208.8h92.8v29.1c12.3-18.8 34.6-45.8 84.4-45.8 61.2 0 106.8 39.7 106.8 125.5v100.1z"></path>
</svg>
